<svg xmlns="http://www.w3.org/2000/svg" viewBox="0 0 100 100" fill="none">
  <!-- Fondo del monitor con efecto de pulso -->
  <rect x="10" y="15" width="80" height="55" rx="4" fill="url(#bgGradient)" opacity="0.2"/>
  
  <!-- Pantalla del monitor -->
  <rect x="15" y="20" width="70" height="45" rx="2" fill="url(#screenGradient)"/>
  
  <!-- Línea de actividad (ECG style) -->
  <path 
    d="M 20 42 L 30 42 L 35 32 L 40 52 L 45 38 L 50 42 L 80 42" 
    stroke="url(#lineGradient)" 
    stroke-width="2.5" 
    stroke-linecap="round" 
    stroke-linejoin="round"
    fill="none"
  />
  
  <!-- Puntos de datos -->
  <circle cx="35" cy="32" r="2" fill="#60a5fa" opacity="0.8"/>
  <circle cx="40" cy="52" r="2" fill="#60a5fa" opacity="0.8"/>
  <circle cx="45" cy="38" r="2" fill="#60a5fa" opacity="0.8"/>
  
  <!-- Base del monitor -->
  <rect x="42" y="65" width="16" height="3" rx="1.5" fill="url(#baseGradient)"/>
  <path d="M 35 68 L 65 68 L 62 73 L 38 73 Z" fill="url(#standGradient)"/>
  
  <!-- Indicador de ubicación -->
  <circle cx="75" cy="30" r="8" fill="url(#pinGradient)" opacity="0.9"/>
  <path d="M 75 26 L 75 34 M 71 30 L 79 30" stroke="white" stroke-width="1.5" stroke-linecap="round"/>
  
  <!-- Gradientes -->
  <defs>
    <linearGradient id="bgGradient" x1="0%" y1="0%" x2="100%" y2="100%">
      <stop offset="0%" style="stop-color:#6366f1;stop-opacity:1" />
      <stop offset="100%" style="stop-color:#8b5cf6;stop-opacity:1" />
    </linearGradient>
    
    <linearGradient id="screenGradient" x1="0%" y1="0%" x2="0%" y2="100%">
      <stop offset="0%" style="stop-color:#1e293b;stop-opacity:1" />
      <stop offset="100%" style="stop-color:#0f172a;stop-opacity:1" />
    </linearGradient>
    
    <linearGradient id="lineGradient" x1="0%" y1="0%" x2="100%" y2="0%">
      <stop offset="0%" style="stop-color:#60a5fa;stop-opacity:0.6" />
      <stop offset="50%" style="stop-color:#3b82f6;stop-opacity:1" />
      <stop offset="100%" style="stop-color:#60a5fa;stop-opacity:0.6" />
    </linearGradient>
    
    <linearGradient id="baseGradient" x1="0%" y1="0%" x2="100%" y2="0%">
      <stop offset="0%" style="stop-color:#64748b;stop-opacity:1" />
      <stop offset="100%" style="stop-color:#475569;stop-opacity:1" />
    </linearGradient>
    
    <linearGradient id="standGradient" x1="0%" y1="0%" x2="0%" y2="100%">
      <stop offset="0%" style="stop-color:#475569;stop-opacity:1" />
      <stop offset="100%" style="stop-color:#334155;stop-opacity:1" />
    </linearGradient>
    
    <linearGradient id="pinGradient" x1="0%" y1="0%" x2="100%" y2="100%">
      <stop offset="0%" style="stop-color:#10b981;stop-opacity:1" />
      <stop offset="100%" style="stop-color:#059669;stop-opacity:1" />
    </linearGradient>
  </defs>
</svg>
