<?xml version="1.0" standalone="no"?>
<!DOCTYPE svg PUBLIC "-//W3C//DTD SVG 20010904//EN"
 "http://www.w3.org/TR/2001/REC-SVG-20010904/DTD/svg10.dtd">
<svg version="1.0" xmlns="http://www.w3.org/2000/svg"
 width="330.000000pt" height="268.000000pt" viewBox="0 0 330.000000 268.000000"
 preserveAspectRatio="xMidYMid meet">

<g transform="translate(0.000000,268.000000) scale(0.100000,-0.100000)"
fill="#000000" stroke="none">
<path d="M2914 2436 c-58 -26 -64 -44 -64 -209 0 -145 0 -148 -26 -174 -20
-20 -32 -24 -57 -19 -84 15 -167 18 -216 7 -168 -36 -304 -171 -340 -339 -18
-85 -15 -623 4 -697 57 -219 270 -362 485 -325 36 6 89 22 119 36 66 30 83 30
107 3 72 -81 194 -40 194 65 0 22 -11 94 -25 159 l-25 117 0 640 c0 678 0 682
-46 721 -28 24 -74 30 -110 15z m-183 -634 c39 -20 62 -41 84 -77 l30 -48 3
-293 c2 -200 -1 -306 -9 -336 -15 -59 -89 -132 -148 -148 -97 -26 -200 21
-245 112 l-26 52 0 290 c0 160 4 307 10 326 13 49 61 104 112 129 61 30 123
28 189 -7z"/>
<path d="M293 2030 c-17 -10 -37 -28 -42 -39 -7 -13 -11 -176 -11 -488 0 -515
-2 -496 62 -529 81 -42 158 25 158 137 0 55 28 69 136 69 91 0 97 -1 124 -28
16 -17 35 -53 45 -88 72 -249 140 -356 244 -384 50 -13 83 -5 115 27 55 55 38
137 -36 178 -47 25 -62 51 -88 155 -12 47 -35 118 -51 158 -16 41 -29 77 -29
80 0 4 20 34 45 67 69 92 89 151 89 270 1 95 -1 104 -35 175 -41 85 -112 162
-187 203 -80 44 -159 57 -342 57 -146 0 -169 -2 -197 -20z m428 -227 c71 -37
111 -93 117 -167 6 -72 -12 -120 -62 -170 -49 -49 -98 -66 -193 -66 -56 0 -76
4 -97 21 l-26 20 0 174 0 174 26 20 c22 17 41 21 104 21 64 0 85 -5 131 -27z"/>
<path d="M1535 2036 c-129 -31 -241 -123 -298 -243 l-32 -68 -3 -349 c-3 -326
-2 -353 17 -415 48 -157 168 -257 340 -281 210 -30 410 79 467 255 15 46 15
54 1 87 -19 46 -66 72 -115 64 -43 -7 -69 -29 -94 -84 -37 -78 -124 -120 -223
-107 -120 15 -184 97 -176 228 1 9 10 26 21 37 19 19 33 20 213 20 212 0 260
8 321 55 19 15 47 51 62 81 26 52 26 56 22 231 -3 175 -3 179 -34 244 -91 191
-294 293 -489 245z m158 -217 c47 -13 102 -60 128 -110 15 -31 19 -59 19 -150
0 -163 5 -159 -210 -159 -188 0 -203 5 -216 76 -11 57 4 191 26 234 48 93 151
138 253 109z"/>
<path d="M288 883 c-82 -51 -65 -169 28 -202 36 -12 44 -12 77 4 21 10 44 30
52 46 53 102 -60 212 -157 152z"/>
<path d="M332 383 l-29 -56 -28 51 c-16 29 -32 52 -37 52 -4 0 -7 -33 -6 -72
l1 -73 6 60 6 60 19 -35 c34 -65 37 -65 67 -13 l28 48 4 -65 c3 -63 3 -62 5
18 1 45 0 82 -3 82 -3 0 -18 -25 -33 -57z"/>
<path d="M1111 368 c0 -42 2 -79 7 -81 4 -3 6 20 4 51 -5 98 -9 110 -11 30z"/>
<path d="M2205 390 c-14 -27 -29 -50 -34 -50 -4 0 -19 20 -32 45 -13 25 -27
45 -31 45 -5 0 -7 -33 -6 -72 l1 -73 6 60 6 60 25 -47 c13 -27 27 -48 30 -48
3 0 17 21 30 48 l25 47 6 -65 6 -65 1 83 c1 45 0 82 -3 82 -2 0 -16 -22 -30
-50z"/>
<path d="M2601 368 c0 -42 2 -79 7 -81 4 -3 6 20 4 51 -5 98 -9 110 -11 30z"/>
<path d="M2800 410 c0 -27 -3 -30 -24 -24 -46 11 -76 -55 -40 -90 41 -41 74
-6 74 80 0 35 -2 64 -5 64 -3 0 -5 -14 -5 -30z m-12 -42 c30 -30 -2 -93 -36
-71 -21 13 -27 50 -12 69 15 17 32 18 48 2z"/>
<path d="M3062 407 c-2 -24 -5 -27 -27 -21 -34 8 -55 -11 -55 -52 0 -23 6 -37
20 -44 49 -26 76 17 67 105 -2 27 -4 31 -5 12z m-12 -42 c15 -18 5 -64 -15
-72 -35 -13 -61 47 -33 75 16 16 33 15 48 -3z"/>
<path d="M1241 358 c1 -34 4 -42 6 -23 3 17 8 35 13 40 4 6 2 16 -6 23 -12 11
-14 5 -13 -40z"/>
<path d="M1839 393 c0 -10 -1 -36 -2 -58 -2 -36 -5 -40 -27 -40 -21 0 -26 5
-28 32 -2 23 3 35 20 47 25 18 17 22 -13 6 -13 -7 -19 -21 -19 -44 0 -41 21
-60 55 -52 23 6 25 11 25 66 0 33 -2 60 -5 60 -3 0 -5 -8 -6 -17z"/>
<path d="M550 375 c1 -26 2 -28 11 -12 8 14 8 22 0 30 -8 8 -11 3 -11 -18z"/>
<path d="M438 379 c-28 -16 -24 -77 6 -90 17 -8 29 -8 42 0 17 11 17 11 -4 6
-22 -6 -52 9 -52 26 0 5 16 9 35 9 30 0 35 3 35 24 0 33 -29 45 -62 25z m50
-22 c3 -13 -3 -17 -27 -17 -33 0 -39 8 -19 28 17 17 42 11 46 -11z"/>
<path d="M632 330 c1 -50 2 -51 5 -13 3 28 11 47 24 57 20 14 20 14 -5 12 -25
-1 -26 -3 -24 -56z"/>
<path d="M726 374 c-20 -20 -20 -58 0 -78 32 -32 74 -10 74 39 0 49 -42 71
-74 39z m52 -6 c30 -30 -2 -93 -36 -71 -21 13 -27 50 -12 69 15 17 32 18 48 2z"/>
<path d="M868 383 c-15 -4 -18 -16 -17 -76 1 -40 4 -60 6 -44 4 23 8 26 28 21
18 -4 27 0 41 21 16 25 16 30 3 54 -15 26 -30 33 -61 24z m51 -25 c9 -24 4
-55 -10 -64 -5 -3 -18 -2 -29 1 -15 5 -20 15 -20 40 0 46 44 64 59 23z"/>
<path d="M985 366 c-14 -22 -15 -29 -3 -53 18 -37 52 -42 73 -9 14 22 15 29 3
53 -18 37 -52 42 -73 9z m64 -8 c12 -33 -2 -63 -29 -63 -14 0 -26 8 -30 20
-11 29 6 65 30 65 12 0 24 -9 29 -22z"/>
<path d="M1330 380 c-11 -8 -8 -9 12 -4 21 5 29 2 34 -11 4 -9 1 -20 -6 -25
-10 -6 -10 -8 1 -12 19 -6 3 -38 -20 -38 -28 0 -37 21 -16 37 17 12 17 13 2
13 -24 0 -33 -28 -14 -47 10 -10 24 -13 41 -9 23 6 26 11 26 50 0 31 -5 46
-16 50 -21 8 -26 7 -44 -4z"/>
<path d="M1458 383 c-14 -3 -18 -14 -17 -51 l1 -47 8 38 c4 21 12 43 19 50 19
19 45 -5 52 -49 6 -39 6 -39 8 -6 2 60 -18 79 -71 65z"/>
<path d="M1585 381 c-3 -6 7 -9 22 -8 18 1 28 -3 31 -15 2 -12 -5 -17 -30 -20
-25 -2 -34 -8 -36 -25 -3 -23 0 -25 51 -27 25 -2 27 1 27 39 0 23 -5 46 -12
53 -14 14 -44 16 -53 3z m55 -60 c0 -15 -29 -33 -45 -27 -28 10 -17 36 15 36
17 0 30 -4 30 -9z"/>
<path d="M1918 379 c-21 -12 -24 -69 -6 -87 14 -14 54 -16 62 -3 4 5 -3 7 -14
4 -20 -5 -50 12 -50 28 0 4 17 9 38 11 31 2 36 6 34 23 -6 33 -32 43 -64 24z
m50 -22 c3 -13 -3 -17 -27 -17 -33 0 -39 8 -19 28 17 17 42 11 46 -11z"/>
<path d="M2302 378 c-7 -7 -12 -26 -12 -43 0 -17 5 -36 12 -43 28 -28 78 -1
78 43 0 44 -50 71 -78 43z m56 -10 c30 -30 2 -86 -38 -73 -15 5 -20 15 -20 40
0 41 32 59 58 33z"/>
<path d="M2411 384 c-1 -6 9 -33 21 -60 l21 -49 18 40 c23 53 24 81 0 30 l-19
-40 -20 45 c-11 25 -21 40 -21 34z"/>
<path d="M2873 383 c-7 -2 -13 -9 -13 -14 0 -5 9 -4 19 3 15 9 23 9 35 -1 9
-8 16 -9 16 -3 0 17 -32 26 -57 15z"/>
<path d="M1183 335 c0 -27 2 -38 4 -22 2 15 2 37 0 50 -2 12 -4 0 -4 -28z"/>
<path d="M2543 330 c0 -30 2 -43 4 -27 2 15 2 39 0 55 -2 15 -4 2 -4 -28z"/>
<path d="M2673 335 c0 -27 2 -38 4 -22 2 15 2 37 0 50 -2 12 -4 0 -4 -28z"/>
<path d="M2910 340 c-13 -8 -12 -10 3 -10 15 0 16 -3 7 -20 -13 -23 -33 -26
-49 -6 -10 11 -8 17 6 25 16 9 16 10 2 11 -23 0 -33 -30 -15 -48 9 -10 24 -12
45 -7 26 6 31 11 31 36 0 31 -6 35 -30 19z"/>
<path d="M560 301 c0 -6 4 -13 10 -16 6 -3 7 1 4 9 -7 18 -14 21 -14 7z"/>
</g>
</svg>
